<?xml version="1.0" encoding="utf-8"?>
<!-- Generator: Adobe Illustrator 20.1.0, SVG Export Plug-In . SVG Version: 6.00 Build 0)  -->
<svg version="1.1" id="Layer_1" xmlns="http://www.w3.org/2000/svg" xmlns:xlink="http://www.w3.org/1999/xlink" x="0px" y="0px"
	 viewBox="0 0 2500 882.1" style="enable-background:new 0 0 2500 882.1;" xml:space="preserve">
<style type="text/css">
	.st0{fill:#828282;}
	.st1{fill:#101010;}
	.st2{fill:#4C4C4C;}
	.st3{fill:#6C6C6C;}
	.st4{fill:#404040;}
	.st5{fill:#373737;}
	.st6{fill:#3A3A3A;}
</style>
<g>
	<g>
		<g>
			<path d="M780.8,299.6c0-47.4,35.1-79.8,80-79.8c29.4,0,48.3,14.6,60.3,32.6l-19.7,10.4c-8.1-12.9-23.4-22.4-40.7-22.4
				c-32.1,0-56.2,24.5-56.2,59.2c0,34.4,24,59.2,56.2,59.2c17.3,0,32.6-9.5,40.7-22.4l19.7,10.4c-12.3,18-31,32.6-60.3,32.6
				C816,379.3,780.8,347,780.8,299.6z"/>
			<path d="M935.7,236.7c0-7.4,6.2-13.2,13.4-13.2c7.4,0,13.4,5.8,13.4,13.2c0,7.4-6,13.4-13.4,13.4
				C942,250.1,935.7,244.1,935.7,236.7z M939,264.9h20.8v111.7H939V264.9z"/>
			<path d="M1063.4,305.1c0-18.5-9.5-24.5-23.8-24.5c-12.9,0-24.7,7.9-30.7,16.2v79.8H988V264.9h20.8v15.7
				c7.4-9,22.2-18.5,39.5-18.5c23.6,0,35.8,12.5,35.8,36.1v78.4h-20.8V305.1z"/>
			<path d="M1162.3,262.1c21,0,33.8,8.8,41.9,19.7l-13.9,12.7c-6.7-9.5-15.7-13.9-27-13.9c-22,0-36.1,16.9-36.1,40
				c0,23.1,14.1,40.2,36.1,40.2c11.3,0,20.3-4.6,27-13.9l13.9,12.7c-8.1,10.9-20.8,19.7-41.9,19.7c-33.8,0-56.9-25.2-56.9-58.7
				C1105.4,287.1,1128.6,262.1,1162.3,262.1z"/>
			<path d="M1218.9,236.7c0-7.4,6.2-13.2,13.4-13.2c7.4,0,13.4,5.8,13.4,13.2c0,7.4-6,13.4-13.4,13.4
				C1225.2,250.1,1218.9,244.1,1218.9,236.7z M1222.2,264.9h20.8v111.7h-20.8V264.9z"/>
			<path d="M1346.6,305.1c0-18.5-9.5-24.5-23.8-24.5c-12.9,0-24.7,7.9-30.7,16.2v79.8h-20.8V264.9h20.8v15.7
				c7.4-9,22.2-18.5,39.5-18.5c23.6,0,35.8,12.5,35.8,36.1v78.4h-20.8V305.1z"/>
			<path d="M1471,305.1c0-18.5-9.5-24.5-23.8-24.5c-12.9,0-24.7,7.9-30.8,16.2v79.8h-20.8V264.9h20.8v15.7
				c7.4-9,22.2-18.5,39.5-18.5c23.6,0,35.8,12.5,35.8,36.1v78.4H1471V305.1z"/>
			<path d="M1599.5,360.6c-8.3,11.1-21.7,18.7-36.5,18.7c-29.1,0-49.9-22-49.9-58.5c0-35.8,20.8-58.7,49.9-58.7
				c14.3,0,27.5,6.9,36.5,19v-16.2h20.8v111.7h-20.8V360.6z M1599.5,297.3c-5.8-9-18.3-16.4-31-16.4c-20.8,0-33.8,16.6-33.8,40
				c0,23.1,12.9,40,33.8,40c12.7,0,25.2-7.2,31-16.2V297.3z"/>
			<path d="M1652.9,351.8v-68.7h-18.5v-18.3h18.5v-30.5h20.8v30.5h22.7v18.3h-22.7v64c0,7.9,3.7,13.6,10.9,13.6
				c4.9,0,9.2-2.1,11.3-4.4l5.3,15.7c-4.4,4.2-10.9,7.2-21.7,7.2C1661.9,379.3,1652.9,369.4,1652.9,351.8z"/>
			<path d="M1711.4,236.7c0-7.4,6.2-13.2,13.4-13.2c7.4,0,13.4,5.8,13.4,13.2c0,7.4-6,13.4-13.4,13.4
				C1717.7,250.1,1711.4,244.1,1711.4,236.7z M1714.6,264.9h20.8v111.7h-20.8V264.9z"/>
			<path d="M793.3,567.2c0-79.6,59.4-134,136-134c52.4,0,84.7,27.2,104.1,58.3l-38.8,19.8c-12.4-21.4-37.3-37.7-65.3-37.7
				c-51.3,0-89.3,39.2-89.3,93.6c0,54.4,38.1,93.6,89.3,93.6c28,0,52.8-15.9,65.3-37.7l38.8,19.8c-19.8,31.1-51.7,58.3-104.1,58.3
				C852.7,701.2,793.3,646.8,793.3,567.2z"/>
			<path d="M1184,578.5c0-29.1-15.1-38.1-38.1-38.1c-20.6,0-38.4,12.4-48.2,25.3v130.9H1057V437.4h40.8v97.1
				c12.4-14.8,36.9-30.3,66.4-30.3c40.4,0,60.6,21,60.6,59.4v132.8H1184V578.5z"/>
			<path d="M1260.9,460.8c0-14,11.7-25.3,25.2-25.3c14,0,25.2,11.3,25.2,25.3c0,14-11.3,25.2-25.2,25.2
				C1272.6,486,1260.9,474.7,1260.9,460.8z M1266,508.9h40.8v187.6H1266V508.9z"/>
			<path d="M1347.9,653V437.4h40.8v205.5c0,12.8,6.2,22.1,17.9,22.1c7.8,0,14.8-3.1,17.9-6.6l9.7,30.7c-7.4,7-19.4,12-38.1,12
				C1364.3,701.2,1347.9,684.1,1347.9,653z"/>
			<path d="M1579,670.9c-14.4,18.6-36.1,30.3-60.2,30.3c-48.2,0-83.5-36.5-83.5-98.3c0-60.6,35-98.7,83.5-98.7
				c23.3,0,45.1,10.9,60.2,30.7v-97.5h40.8v259.1H1579V670.9z M1579,565.6c-9.3-14-29.1-25.3-48.6-25.3c-32.2,0-52.8,26-52.8,62.5
				c0,36.1,20.6,62.1,52.8,62.1c19.4,0,39.2-10.9,48.6-24.9V565.6z"/>
			<path d="M1661,508.9h40.8v27.6c14-17.9,36.5-31.9,61-31.9V545c-3.5-0.8-7.8-1.2-12.8-1.2c-17.1,0-40,11.7-48.2,24.9v127.8H1661
				V508.9z"/>
			<path d="M1867.6,504.3c56.3,0,92.4,43.1,92.4,102.2v9.7h-144.9c3.1,28.4,24.5,51.7,59.8,51.7c18.3,0,40-7.4,53.2-20.6l18.6,26.8
				c-18.6,17.9-46.2,27.2-76.1,27.2c-56.3,0-98.3-39.2-98.3-98.7C1772.5,548.2,1812.1,504.3,1867.6,504.3z M1814.8,587.4h105.7
				c-0.8-22.1-15.9-49.7-52.8-49.7C1832.7,537.7,1816.8,564.5,1814.8,587.4z"/>
			<path d="M2115.4,579.2c0-29.1-14.8-38.8-37.7-38.8c-21,0-38.8,12.4-48.2,25.3v130.9h-40.8V508.9h40.8v25.6
				c12.4-14.8,36.5-30.3,66-30.3c40.4,0,60.6,21.8,60.6,60.2v132.1h-40.8V579.2z"/>
			<path d="M2177.6,515.1c12.4-7.8,24.5-23.7,26.4-36.5c-0.8,0.4-3.9,1.2-5.8,1.2c-12,0-21-9.3-21-22.1c0-13.2,10.5-24.1,23.7-24.1
				c14.4,0,27.2,11.7,27.2,32.2c0,25.6-14.4,48.9-34.2,62.5L2177.6,515.1z"/>
			<path d="M2241.3,642.5c13.2,13.6,39.2,26.4,63.7,26.4c24.5,0,36.9-10.5,36.9-25.2c0-15.5-19.8-19.8-42.7-24.9
				c-32.2-7-70.7-15.5-70.7-57.5c0-30.7,26.4-57.1,73.8-57.1c31.9,0,55.9,11.3,73,26.4l-17.1,28.7c-11.3-12.8-32.2-22.5-55.5-22.5
				c-21.4,0-35,9.7-35,22.9c0,13.6,18.6,17.5,40.8,22.5c32.6,7,72.6,16.3,72.6,60.6c0,33-27.6,58.3-78.1,58.3
				c-31.9,0-61-10.1-80.4-29.1L2241.3,642.5z"/>
		</g>
	</g>
	<g>
		<path class="st0" d="M535.7,155.3c-18,30-40.6,56.3-66.5,78.5c36.8-1.1,73.4,9.7,103.8,31c2.1-1.8,4.3-3.5,6.7-5.1
			c29.8-19.4,69.7-11.1,89.1,18.7c19.5,29.8,11.1,69.7-18.7,89.1c-2.4,1.6-4.9,2.9-7.4,4.1c6.8,34.1,3,69.3-10.4,100.9
			c29.3-20.1,62.8-33.8,98.1-40c6.1-56.9-6.6-116.3-40.4-168C652.8,207.6,596.9,170.3,535.7,155.3z"/>
		<path class="st0" d="M72.9,253.3c-21.6,57.2-30.9,118.6-27,179.9c51.9-43.4,113.1-74.8,178.9-91.3c2.7-10.5,6-20.8,10-30.9
			c-21.6-1.6-43.3-5.3-65-11.5C134.1,289.3,101.6,273.5,72.9,253.3z"/>
		<path class="st1" d="M114.8,640c73.5,112.7,191,179.4,315.2,192.4c35.3-42,62.5-92,78.5-148.2c2.3-8.1,4.3-16.3,6.1-24.4
			c-53.7,8.5-108.8-0.4-157-24.8C299,668,224,650.3,186.7,593.1c-37.3-57.2-23.3-132.9,30.5-173.3c-1.4-26.3,1.2-52.6,7.6-77.9
			C159,358.5,97.7,389.8,45.9,433.2C50.4,504.6,72.9,575.9,114.8,640z"/>
		<path class="st2" d="M114.3,171.4c-16.8,25.9-30.7,53.4-41.5,82c28.7,20.1,61.2,36,96.9,46.1c21.6,6.2,43.4,9.9,65,11.5
			c14.3-36.3,36.9-69.7,67.2-96.9c-22.1-11.1-45.5-20.2-70.1-27.2C192.6,175.6,153.1,170.7,114.3,171.4z"/>
		<path class="st3" d="M231.8,186.8c24.6,7,48,16.2,70.1,27.2c9.7-8.7,20.1-16.8,31.4-24.2L239.4,46.1
			c-51.6,33.7-93.5,76.7-125.1,125.3C153.1,170.7,192.6,175.6,231.8,186.8z"/>
		<path class="st3" d="M535.7,155.3c-53.1-13-110.2-9.2-162.6,13.3l48,73.6c15.7-5.1,31.9-7.9,48.1-8.3
			C495.1,211.6,517.6,185.2,535.7,155.3z"/>
		<g>
			<path class="st4" d="M682.7,556.8c26.7-36.8,43-79.8,47.7-124.2c-35.4,6.1-68.8,19.9-98.1,40c-2.9,6.9-6.3,13.6-10.1,20
				c-5.7,9.6-12.2,18.8-19.8,27.3l48,73.6C662.4,582.1,673.2,569.8,682.7,556.8z"/>
			<path class="st4" d="M614.8,621.3c-4.8,3.1-9.7,6.1-14.7,8.9c-23.9,13.4-49.1,22.6-74.8,27.8c-3.6,0.7-7.1,1.3-10.7,1.9
				c-1.8,8.1-3.8,16.3-6.1,24.4c-16,56.2-43.2,106.2-78.5,148.2c47.2,4.9,95.4,2.1,142.5-9c47.2-11.1,93.2-30.4,136.2-58.3
				l-82.1-125.7L614.8,621.3z"/>
		</g>
	</g>
	<path class="st5" d="M357.6,635c2.5-1.4,4.9-2.8,7.3-4.4c59.6-38.9,76.4-118.7,37.5-178.2c-38.9-59.6-118.7-76.3-178.3-37.5
		c-2.4,1.6-4.7,3.2-7,4.9c2.4,43.6,15.9,87.2,41.4,126.4C284.2,585.4,318.7,615.2,357.6,635z"/>
	<path d="M186.7,593.1C224,650.3,299,668,357.6,635c-39-19.8-73.4-49.6-99-88.8c-25.6-39.2-39-82.8-41.4-126.4
		C163.4,460.2,149.4,536,186.7,593.1z"/>
	<path class="st3" d="M573,264.8c-24.2,20.7-29.9,56.6-12,84c17.9,27.4,53,36.6,81.7,22.8c-4.2-20.8-12.3-41.2-24.6-60.1
		C605.8,292.7,590.4,277,573,264.8z"/>
	<path class="st6" d="M668.8,278.5c-19.4-29.8-59.3-38.2-89.1-18.7c-2.4,1.6-4.6,3.3-6.7,5.1c17.4,12.2,32.8,27.8,45.1,46.7
		c12.3,18.9,20.4,39.3,24.6,60.1c2.5-1.2,5-2.5,7.4-4.1C679.9,348.1,688.3,308.2,668.8,278.5z"/>
</g>
</svg>
