<?xml version="1.0" encoding="utf-8"?>
<!-- Generator: Adobe Illustrator 20.1.0, SVG Export Plug-In . SVG Version: 6.00 Build 0)  -->
<svg version="1.1" id="Layer_1" xmlns="http://www.w3.org/2000/svg" xmlns:xlink="http://www.w3.org/1999/xlink" x="0px" y="0px"
	 viewBox="0 0 2500 729.1" style="enable-background:new 0 0 2500 729.1;" xml:space="preserve">
<path d="M630.3,605.1c-176.5,0-352.9,0-529.4,0c-1.9,0-5.5,0.6-7.2-0.7c-1.4-1.1-0.9-3.9-0.9-5.4c0.1-10.9,0-21.8,0-32.6
	c0-22.4,0-44.9,0-67.3c0-3.1,0-6.2,0-9.3c0-2.3-0.2-4.6,0.1-6.8c0.3-3.2,3.1-2.8,5.7-2.8c21.2,0,42.4-0.1,63.6,0.1
	c4.3,0,5.7-1.1,5.7-5.6c-0.2-28.3-0.1-56.6-0.1-85c0-6,0.1-6.1,6.1-6.1c18.2,0,36.3-0.1,54.5,0.1c1.7,0,3.9-0.1,5-1.7
	c1.3-1.9,0.8-4.9,0.7-7c-0.1-7.2-0.1-14.5-0.1-21.7c0-14.5,0-29,0-43.5c0-2.1,0-4.1,0-6.2c0-1.1,0-2.4,0.4-3.4
	c0.9-2.1,3.2-2.3,5.2-2.3c11.8,0.3,23.5,0.1,35.3,0c7.3-0.1,14.5-0.3,21.8-0.4c3.5-0.1,7,0.1,10.4-0.1c2.6-0.2,4.3-1.7,5.7-3.9
	c13.6-20.9,29.3-40.1,47-57.6c38.4-37.9,83.2-65.7,133.8-84.4c32.2-11.8,65.4-19.3,99.5-22.5c65.7-6.1,129.1,3.7,190,29
	c45.2,18.8,85.2,45.5,119.7,80.2c16.6,16.7,31.5,35,44.3,54.8c2,3,4.2,4.2,7.8,4.3c22.1,0.7,44.1,0.5,66.2,0.4
	c4.3,0,5.5,1.5,5.4,5.6c-0.1,24.7-0.1,49.4-0.1,74.1c0,6,0.1,6.1,6.1,6.1c17.7,0,35.4,0,53.2,0c1.5,0,3.6-0.3,5,0.4
	c1,0.5,1.2,1.6,1.3,2.7c0.3,2.8,0.1,5.6,0.1,8.4c0,3.5,0,7,0,10.5c0,14.5,0,28.9,0,43.4c0,8.3,0,16.5,0,24.8c0,6.3,0,6.3,6.5,6.3
	c20.8,0,41.5,0,62.3,0c6.8,0,6.9,0,6.9,6.7c0,37.2,0,74.4,0,111.5c0,6.7,0,6.7-6.8,6.7C984.1,605.1,807.2,605.1,630.3,605.1
	C453.9,605.1,807.2,605.1,630.3,605.1z M631.3,471.8c-89.2,0-178.3,0-267.5,0c-6.6,0-6.6,0-6.6,6.4c0,11.8,0,23.6,0,35.4
	c0,2.2-0.1,4.5,0,6.7c0,1,0.1,2.2,0.6,3c1.2,1.9,5,1.3,6.8,1.3c91.2,0,182.4,0,273.6,0c1.7,0,4.2,0.5,5.8-0.3
	c1.3-0.7,1.6-2.2,1.6-3.5c-0.1-5.2,0-10.5,0-15.7c0-7.5,0-7.5,7.4-7.5c81.2,0,162.4,0,243.5,0c1.3,0,2.5-0.1,3.8,0
	c0.9,0,1.9,0.2,2.8-0.2c1.6-0.6,1.9-2.3,1.8-3.8c-0.1-3.6-0.1-7.1-0.1-10.7c0-2.7,0.2-5.4-0.1-8.1c-0.1-1.1-0.3-2.1-1.4-2.6
	c-1.5-0.7-3.6-0.4-5.2-0.4C809.3,471.8,720.3,471.8,631.3,471.8C542.1,471.8,720.3,471.8,631.3,471.8z M591.3,336.5
	c0-30.4,0-60.7,0.1-91.1c0-3.6-0.8-4.9-4.8-4.1c-9,1.7-17.9,3.5-26.8,5.6c-3.4,0.8-4.7,2.3-4.7,5.9c0.2,15.5,0.1,31.1,0.1,46.6
	c0,42,0,83.9,0,125.9c0,6.8,0,6.8,7,6.8c7,0,13.9-0.2,20.9,0c2.1,0,5,0.7,6.8-0.6c1.5-1,1.6-3.2,1.6-4.8
	C591.2,396.7,591.3,366.6,591.3,336.5C591.3,306.2,591.3,366.6,591.3,336.5z M535.5,342.5c0-28.3-0.1-56.6,0.1-84.9
	c0-1.7-0.1-3.8-2.3-3.5c-1.3,0.1-2.7,0.8-3.9,1.3c-1.8,0.7-3.6,1.4-5.3,2.1c-6.9,2.7-13.7,5.7-20.4,8.7c-3.3,1.5-4.4,3.4-4.4,7
	c0.1,21.3,0.1,42.7,0.1,64c0,29.9,0.1,59.8-0.1,89.7c0,1.7,0.1,3.8,1.8,4.8c2.1,1.2,5.4,0.5,7.7,0.5c7.2-0.2,14.5-0.1,21.7,0.1
	c4.1,0.1,5.2-1.2,5.1-5.2C535.5,398.9,535.5,370.7,535.5,342.5C535.5,314.2,535.5,370.7,535.5,342.5z M481.5,356.1
	c0-23.8,0-47.6,0-71.4c0-1.2,0.7-3.1-0.7-3.8c-1.4-0.7-2.5,0.9-3.5,1.6c-6.8,4.5-13.4,9.3-19.8,14.4c-3.2,2.5-6.3,5-9.3,7.7
	c-2.4,2.1-3.6,4.7-3.6,7.9c0.1,26,0.1,51.9,0.1,77.9c0,8.4,0,16.9,0,25.3c0,4.1,0,8.2,0,12.4c0,2.5,0,5,3.3,4.9
	c7.5-0.2,15.1,0.1,22.6-0.1c2.8-0.1,6.4,0.3,9-0.8c2-0.9,2.2-3,2.2-5C481.4,403.4,481.5,379.8,481.5,356.1
	C481.5,332.3,481.5,379.8,481.5,356.1z M646.2,368.4c0-19.7-0.1-39.5,0.1-59.2c0-1.7-0.1-3.9-1.7-4.9c-1.9-1.2-5-0.6-7.1-0.6
	c-7.4,0.2-14.8,0.1-22.2-0.1c-2.7,0-4.2,0.9-4.4,3.7c-0.2,4.3,0,8.6,0,12.9c0,8.7,0,17.4,0,26.1c0,17.4,0,34.9,0,52.3
	c0,9.8,0,19.5,0,29.3c0,3.3,1.2,4.3,4.3,4.2c8.6-0.2,17.1-0.3,25.7,0c4.4,0.2,5.3-1.5,5.3-5.5C646.2,407.3,646.2,387.8,646.2,368.4
	C646.2,348.6,646.2,387.8,646.2,368.4z M702.9,340.1c0-17.8,0-35.7,0-53.5c0-8.9,0-17.7,0-26.6c0-3.5,0.7-8.5-1.4-11.6
	c-0.9-1.3-2.4-2.1-3.9-2.6c-2.7-1-5.5-1.5-8.2-2.1c-6-1.3-6-1.3-6,4.8c0,50.8,0,101.6,0,152.4c0,1.9,0.4,4.5-0.2,6.4
	c-0.6,1.6-2.1,1.9-3.6,1.9c-4.2-0.1-8.4,0.1-12.6,0c-2.6-0.1-3.6,1-3.6,3.6c0.1,5.1,0.2,10.2,0,15.2c-0.1,3.3,1.2,4.3,4.3,4.2
	c9.9-0.1,19.7,0,29.6-0.1c5.6,0,5.6,0,5.6-5.9C702.9,397.5,702.9,368.8,702.9,340.1C702.9,313.5,702.9,368.8,702.9,340.1z
	 M755.4,348.9c0-23.9,0-47.9,0-71.8c0-4.7,1.3-10.8-4.2-12.7c-3.8-1.3-7.5-3.1-11.2-4.7c-5.3-2.3-5.3-2.3-5.3,3.5
	c0,45.2,0,90.3,0,135.5c0,10,0,10.1-10,10.4c-1.8,0.1-3.5,0.7-3.8,2.6c-0.3,1.3-0.1,2.8,0,4.1c0,1.7,0.1,3.5,0.1,5.2
	c0,1.6,0,3.3-0.1,4.9c0,1.3-0.3,2.8,0.1,4.1c0.6,2,2.5,2.3,4.3,2.2c7.7-0.1,15.4,0,23.1,0c7.2,0,7.2,0,7.2-7
	C755.4,399.7,755.4,374.3,755.4,348.9C755.4,322.9,755.4,374.3,755.4,348.9z M427.5,326.6c-0.3-0.1-0.6-0.2-0.9-0.3
	c-0.9,1.1-1.9,2.1-2.8,3.2c-10.3,13-19.1,27-27.6,41.2c-11,18.4-21.5,37.1-29.4,57.2c-1.4,3.4-0.8,4.6,3.1,4.6
	c17.3-0.1,34.5-0.1,51.8-0.1c5.8,0,5.8,0,5.8-5.8c0-32.1,0-64.1,0-96.2C427.5,329.2,427.5,327.9,427.5,326.6
	C427.2,326.5,427.5,327.9,427.5,326.6z M813.5,367.4c0-11.7,0-23.5,0-35.2c0-5.8,0-11.6,0-17.4c0-4.5,1.1-10.2-3-13.3
	c-3.7-2.7-7.2-5.5-10.8-8.3c-1.4-1.1-2.9-2.7-4.5-3.5c-2.1-1-2.1,1.5-2.1,2.8c-0.1,28.8,0,57.6,0,86.4c0,8.2,0,16.4,0,24.6
	c0,1.6,0,3.6-1.3,4.7c-1.7,1.5-4.9,0.7-7,0.7c-1.6,0-3.2,0-4.8,0.1c-1.5,0-3-0.2-4.4,0c-2.1,0.3-2.7,1.9-2.7,3.8
	c0.1,4.9,0.2,9.9,0,14.8c-0.1,3.4,1.1,4.6,4.5,4.5c8-0.1,16.1-0.2,24.1-0.1c2,0,3.9,0.1,5.9,0.1c1.2,0,2.5,0.1,3.7-0.3
	c2.2-0.7,2.4-2.9,2.4-4.9C813.4,407.2,813.5,387.3,813.5,367.4C813.5,347.7,813.5,387.3,813.5,367.4z M844.5,334.3
	c0,2.8,0,4.3,0,5.9c0,19.9,0,39.7,0,59.6c0,10.2,0.7,9.4-9,9.2c-3.3-0.1-4.3,1.3-4.2,4.4c0.1,4.8,0.1,9.6,0,14.4
	c-0.1,3.2,1.6,4.5,4.7,4.4c7.7-0.2,15.4-0.2,23.1,0c3.5,0.1,4.5-1.3,4.4-4.6c-0.1-13.4-0.1-26.9-0.1-40.3c0-6.7,0-13.4,0-20.2
	c0-3.1,0.5-6.6-0.3-9.5c-0.7-2.6-3.1-5-4.7-7.1C854,344.9,849.3,339.5,844.5,334.3C844.5,337,851.3,341.6,844.5,334.3z M628.5,269.1
	c4.6,0,9.3-0.1,13.9,0c2.7,0.1,4-0.8,3.9-3.7c-0.1-7.8-0.1-15.7,0-23.5c0-1.8-0.6-3.3-2.5-3.7c-1.3-0.2-2.6-0.1-3.9-0.1
	c-1.8,0-3.5,0-5.3,0c-6.7,0.1-13.4,0.1-20.1,0c-2.7,0-3.5,1.2-3.5,3.7c0.1,7.8,0.1,15.7,0,23.5c-0.1,3.1,1.8,3.7,4.6,3.7
	C619.9,269.1,624.2,269.1,628.5,269.1C633.1,269.1,624,269.1,628.5,269.1z M881.9,385.7c-0.4,0.5-0.7,0.7-0.7,0.9
	c0,14.2,0,28.4,0,42.6c0,1.8,0.9,2.8,2.6,3c2.5,0.3,5.2,0,7.8,0c2.8,0,5.7,0,8.5,0.1c1.2,0,3,0.1,3.5-1.2c0.6-1.6-1.1-4-1.7-5.3
	c-1.2-2.6-2.3-5.1-3.5-7.7c-2.3-5.2-4.6-10.3-7-15.4C888.7,396.8,885.6,391.1,881.9,385.7C881.5,386.1,885.6,391.1,881.9,385.7z"/>
<g>
	<path d="M1447.3,394.8c4.2-16.4,8.5-32.7,12.7-49.1c5.8-22.4,11.7-44.8,17.2-67.3c1.2-5.1,3.5-7.1,8.8-6.9
		c11.7,0.3,23.4,0.2,35.1,0c4.8-0.1,6.4,1.7,6.4,6.5c-0.1,53.8-0.1,107.5,0,161.3c0,4.9-1.7,6.6-6.5,6.5c-7-0.2-14-0.1-21,0
		c-4.1,0-6-1.7-5.9-5.9c0.7-25.3,1.5-50.6,2-75.9c0.3-16.3,0.1-32.6,0.1-50.4c-4.6,17.5-8.9,33.6-13.1,49.8
		c-6.7,25.4-13.4,50.8-19.9,76.3c-1.2,4.7-3.5,6.4-8.2,6.2c-5.8-0.2-11.7-0.3-17.5,0c-4.9,0.3-6.8-1.9-7.9-6.4
		c-10.7-41.2-21.7-82.4-32.6-123.6c-0.3-1.3-0.7-2.6-1.5-3.9c1.3,21.2,0.6,42.5,1.3,63.7c0.3,9.7,0.6,19.5,0.8,29.2
		c0.3,11.5,0.4,23,1,34.4c0.2,4.9-1.7,6.7-6.4,6.6c-6.6-0.1-13.3-0.2-19.9,0c-5.2,0.2-7.1-1.6-7.1-7.1c0.3-24,0.1-47.9,0.1-71.9
		c0-29.2,0.1-58.4-0.1-87.7c-0.1-5.9,1.7-7.9,7.6-7.8c11.3,0.4,22.6,0.3,33.9,0c5.3-0.2,7.4,1.9,8.7,6.9
		c9.5,36.8,19.2,73.4,28.9,110.1c0.5,2,1.2,4.1,1.7,6.1C1446.5,394.7,1446.9,394.7,1447.3,394.8z"/>
	<path d="M2136.9,333.9c9.9-9.1,20.6-13.9,32.8-15.2c13.8-1.5,26,2.2,35.2,12.9c3.2,3.7,4.7,3.6,8,0.4c14.2-13.8,37.1-17.7,54.9-9.7
		c14.1,6.3,21.5,17.5,21.8,32.5c0.6,28.4,0.1,56.9,0.3,85.3c0,4.1-1.6,5.6-5.5,5.6c-6.2-0.1-12.5-0.1-18.7,0c-4.6,0.1-6-1.9-6-6.3
		c0.2-21.6,0.1-43.3,0-64.9c0-3.1-0.3-6.2-0.7-9.3c-2.6-16.9-18.6-23.6-32.7-13.4c-9.2,6.6-12.2,16.6-12.4,27.1
		c-0.5,19.5-0.2,39-0.3,58.5c0,8-0.3,8.3-8.2,8.3c-4.9,0-9.7,0-14.6,0c-7.6-0.1-8-0.4-8-7.9c-0.1-23-0.1-46-0.1-69
		c0-8.9-2.9-16.1-11.5-19.9c-7.6-3.4-17.3-0.9-24.1,5.9c-6.1,6.1-8.6,13.7-9.4,22.1c-2.1,19.8-0.6,39.7-1,59.6
		c-0.2,9.2,0,9.2-9.4,9.3c-4.7,0-9.4-0.2-14,0c-5,0.3-6.8-1.6-6.7-6.8c0.2-32.5,0.1-65.1,0.1-97.6c0-4.7,0.2-9.4,0-14
		c-0.2-4.1,1.6-5.6,5.5-5.6c5.6,0.1,11.3,0.3,16.9-0.1c5.7-0.3,8.6,1.4,7.7,7.6C2136.5,330.5,2136.8,331.6,2136.9,333.9z"/>
	<path d="M1365.2,608.5c0.1-31,5.1-52.1,19.6-70c14.9-18.5,34.8-27.6,58.4-28.7c20.6-1,39.5,3.4,55,18c9.4,8.9,15.3,20,19.5,32.2
		c1,2.8,0.2,4.5-2.7,5.2c-8.5,2.2-17,4.3-25.4,6.7c-4.5,1.3-4.8-1.8-5.5-4.6c-4-14.6-13.6-23.5-28.4-26
		c-18.1-3.2-35.5,4.3-44.3,20.6c-13.7,25.2-13.6,51.4-0.2,76.6c8.6,16,23.4,22.8,41.6,21.3c17.2-1.4,27.2-12.1,34.3-26.4
		c3.8-7.7,3.6-7.8,11.5-4.5c6.3,2.6,12.5,5.3,18.9,7.8c3.2,1.2,4,2.8,2.7,6.2c-10.4,28.3-39.5,48.5-69.9,49.2
		c-29.5,0.6-53.4-9.5-69.9-34.5C1369.1,640.1,1365.1,620.6,1365.2,608.5z"/>
	<path d="M1365.3,131.9c0.4-26.6,7-50.8,26.8-69.9c27.6-26.6,77.3-28.6,104.9-4c10,8.9,16.4,20.2,20.5,32.8c1.1,3.3,0.3,5-3.2,5.9
		c-8.1,2-16.2,4.2-24.3,6.4c-2.9,0.8-4.8,0.3-5.6-3c-4-16.8-14.9-26.3-31.9-27.8c-19.7-1.7-34.8,6.8-43.3,24.6
		c-10.8,22.7-10.5,46.2-0.3,69c8.7,19.4,27.1,28.5,48,24.7c15.4-2.8,24.8-13.4,30.5-27.1c2.3-5.6,4.4-6.7,9.7-4.1
		c6.4,3.2,13.2,5.7,19.9,8.4c3.6,1.4,4.7,3.3,3,7.1c-13,28.6-34.5,45.5-66.3,48.2c-48.2,4-81.2-27.8-87.3-73.5
		C1365.8,143.6,1365,137.8,1365.3,131.9z"/>
	<path d="M1897.9,390.9c-12.9,0-25.7,0.1-38.6-0.1c-4.8-0.1-5.8,1.5-4.2,5.9c3.9,11.1,10.9,19.2,22.7,21.4
		c13.6,2.6,26.8,1.2,36.3-10.3c3.9-4.8,6.9-4.9,11.6-1.7c5,3.4,10.4,6.2,15.6,9.2c2.6,1.5,3.2,3,1.2,5.5
		c-24.8,32.8-70.5,37.1-98.9,15.2c-13.3-10.2-19.8-24.4-21.9-40.6c-2.2-16.3-0.5-32.2,7.4-47.1c11.8-22.3,36-32,58.5-29.7
		c33.1,3.4,51.3,22.3,55,55.5c0.4,3.5,0.7,7,1.1,10.4c0.6,4.6-1.5,6.3-5.9,6.3C1924.4,390.8,1911.2,390.8,1897.9,390.9
		C1897.9,390.8,1897.9,390.9,1897.9,390.9z M1881.3,367.2c7.4,0,14.8,0.1,22.1,0c5.7-0.1,6.5-1.2,4.5-6.7
		c-4-11.4-13.2-17.6-25.6-17.2c-12.5,0.4-23,8.2-26.5,19.2c-1.2,4,0.3,4.7,3.8,4.7C1867,367.2,1874.1,367.2,1881.3,367.2z"/>
	<path d="M1613.2,632.9c-13,0-26.1,0.1-39.1-0.1c-4.4-0.1-5.4,1.4-4.2,5.5c3.8,12.9,14.2,21.4,27.6,22.4c13.4,1.1,25.2-2,33.6-13.3
		c1.9-2.6,3.9-2.6,6.5-1.1c6,3.6,12.1,7.1,18.2,10.5c3.2,1.8,3.2,3.5,1.1,6.4c-23.3,31.8-72.5,37.7-101.7,11.9
		c-11.7-10.3-17.3-24-18.8-39.1c-1.4-14.6-0.5-29.1,5.9-42.8c11.3-24,35.6-34.8,59.6-32.6c33.2,3,51.5,21.8,55.3,55.1
		c0.4,3.7,0.7,7.4,1.2,11c0.6,4.6-1.6,6.2-6,6.1C1639.3,632.8,1626.2,632.9,1613.2,632.9C1613.2,632.9,1613.2,632.9,1613.2,632.9z
		 M1597.2,609.3c7.2,0,14.4-0.3,21.6,0.1c5.4,0.3,5.8-1.9,4.3-6.2c-3.8-11.5-13.2-18.1-25.8-17.8c-12.6,0.3-23.7,8.6-26.7,19.8
		c-0.9,3.3,0.2,4.2,3.3,4.2C1581.7,609.2,1589.5,609.3,1597.2,609.3z"/>
	<path d="M2297.6,166.9c0,10.3-0.1,20.7,0,31c0.1,6-0.3,12.1,3.3,17.5c1.6,2.4,0.4,3.7-2.2,3.7c-9.5,0-19.1,0-28.6-0.1
		c-1.7,0-3.1-0.8-3.3-2.6c-0.7-6.1-3.5-4.1-7-2.2c-16.5,8.9-33.7,10.6-51.2,3.3c-14.9-6.3-23-18.2-23-34.2
		c0-16.2,8.1-28.1,22.9-35.1c11.1-5.2,23.2-6.3,34.9-9c6.4-1.5,12.8-3.2,19.3-4.7c3.4-0.8,4.3-2.6,3.5-6c-1.3-5.4-4.1-9.3-9.5-10.8
		c-8.5-2.3-17-2.3-25.1,1.3c-4.9,2.2-8.3,5.8-8.7,11.5c-0.2,3-1.8,3.9-4.7,3.7c-7.4-0.5-14.8-0.3-22.2-1.2c-4-0.5-4.8-1.9-4.4-5.6
		c2.1-16,11.2-26.4,26-31.4c18.2-6.2,36.8-6,55.1-0.3c17.3,5.3,24.2,15.3,24.6,33.9c0,0.4,0,0.8,0,1.2
		C2297.6,142.8,2297.6,154.9,2297.6,166.9z M2266.8,169.9c0-2.4-0.2-3.7,0-5.1c0.7-5.3-1.4-5.8-5.8-3.9c-6.3,2.6-13.1,3.6-19.8,4.7
		c-5.7,0.9-11.6,1.6-16.6,4.9c-8.4,5.5-8.8,17.1-0.3,21.6c10.5,5.6,21.2,3.7,31.3-1.4C2264.5,186.3,2267.6,178.5,2266.8,169.9z"/>
	<path d="M1962.3,632.9c-12.7,0-25.3,0-38,0c-6,0-6.2,0.6-4.4,6.5c8.6,27.6,46.3,27,59.2,10c3.5-4.6,6.3-4.4,10.6-1.6
		c5.2,3.4,10.7,6.4,16.1,9.5c2.6,1.5,3,3.1,1.1,5.6c-27.7,36.7-79.8,36.3-104.5,10.1c-6.6-7-11.3-15-13.8-24.1
		c-4.5-16.1-4.6-32.3,0.6-48.3c10-31,38.3-42.2,62.8-39.7c32.4,3.3,49.4,20.3,54.5,52.6c0.7,4.4,0.9,8.9,1.4,13.3
		c0.6,4.6-1.5,6.3-5.9,6.2C1988.8,632.8,1975.6,632.9,1962.3,632.9z M1946.6,609.3c7.2,0,14.4,0,21.6,0c6,0,6.4-0.7,4.5-6.4
		c-3.7-11.4-13.4-17.9-26-17.5c-12.6,0.5-23.8,9-26.5,20.1c-0.9,3.8,1.1,3.9,3.7,3.8C1931.4,609.3,1939,609.3,1946.6,609.3z"/>
	<path d="M2077,384.1c0,18.3-0.1,36.6,0.1,54.9c0.1,5-1.5,7.1-6.6,6.9c-6-0.3-12.1-0.2-18.1,0c-4,0.1-6.3-1.3-6.2-5.7
		c0.2-5-2-3.9-4.8-1.9c-14.2,10-30.1,12.4-46.8,8.9c-17.4-3.6-28.5-17.4-29.5-35.2c-1.5-27.6-0.4-55.3-0.9-82.9
		c-0.1-5.3,1.8-7.4,7.1-7.2c5.8,0.3,11.7,0.3,17.5,0c5.4-0.3,7.1,2.1,7.1,7.3c-0.2,20.1-0.1,40.1-0.1,60.2c0,2.1,0,4.3,0,6.4
		c0.2,14.3,6.3,22.1,18.7,23.9c13.3,1.9,25.9-6,29.5-18.5c2.4-8.2,1.8-16.6,1.9-24.9c0.2-15,0-30,0.1-45c0-9.2,0.1-9.3,9.6-9.3
		c5.1,0,10.1,0.1,15.2,0c4.4-0.2,6.2,1.5,6.1,6.2C2076.9,346.7,2077,365.4,2077,384.1z"/>
	<path d="M2088.9,106.9c9.3-9.5,20.2-14,32.6-14.9c18.2-1.4,41.5,7.8,43.2,35.8c1.7,28.2,0.3,56.5,0.8,84.7c0.1,5-1.8,7.1-6.9,6.8
		c-5.8-0.3-11.7-0.3-17.5,0c-4.8,0.2-6.5-1.6-6.5-6.5c0.2-20.3,0.1-40.5,0.1-60.8c0-2.5,0-5.1-0.1-7.6c-0.5-11.5-6.8-20.5-15.7-22
		c-11.4-2-22.7,4.1-27.1,14.7c-2.6,6.2-3.4,12.7-3.4,19.4c0,18.3-0.1,36.6-0.2,54.9c0,7.2-0.5,7.6-7.6,7.7c-5.6,0-11.3-0.3-16.9,0.1
		c-5.5,0.3-7.1-2.2-7.1-7.3c0.2-16.6,0.1-33.1,0.1-49.7c0-19.9,0.1-39.7-0.1-59.6c-0.1-5.3,1.7-7.4,7.1-7c5.6,0.4,11.3,0.5,16.9,0
		c6-0.5,8.3,1.8,7.7,7.6C2088.2,104.2,2088.6,105.1,2088.9,106.9z"/>
	<path d="M1631.5,106.7c15.8-13.9,32.8-18.6,52.1-11.9c14.6,5.1,22.4,16.1,23.6,31.2c2.2,29.2,0.7,58.4,1,87.6
		c0.1,4.3-2.1,5.8-6.2,5.7c-5.8-0.2-11.7-0.3-17.5,0c-5.2,0.3-7.2-1.5-7.1-7c0.3-20.6,0.1-41.3,0.1-61.9c0-2.7,0.1-5.5-0.2-8.2
		c-1.3-10.9-7.4-18.4-16.1-19.8c-10.7-1.7-21.1,3.4-25.8,13.1c-2.6,5.3-4,11-4,16.9c-0.1,19.1-0.2,38.2-0.3,57.3
		c0,9.5,0,9.5-9.3,9.6c-5.3,0-10.5-0.2-15.8,0.1c-4.8,0.2-6.6-1.8-6.6-6.5c0.1-14.2,0-28.4,0-42.7c0-22.4,0.1-44.8-0.1-67.2
		c0-5.1,1.4-7.6,7-7.1c5.8,0.4,11.7,0.4,17.5,0c5.3-0.3,7.7,1.4,7.2,6.9C1631,103.7,1631.3,104.8,1631.5,106.7z"/>
	<path d="M1642.1,436c-2-0.5-2.8,0.9-3.8,1.6c-14.9,10.7-31.4,13.3-48.9,9.3c-17.3-4-28-17.3-28.4-36.7c-0.6-27.7-0.2-55.3-0.3-83
		c0-3.8,1.6-5.3,5.2-5.3c6.6,0,13.3,0.1,19.9-0.1c4.5-0.1,6.1,1.7,6.1,6.2c-0.2,21.8-0.1,43.6-0.1,65.5c0,17.1,6.9,25.7,21.3,26.2
		c15.3,0.5,26.8-9.8,28.3-25.2c2-21.4,0.7-42.8,1.1-64.2c0.1-8.4,0-8.4,8.4-8.4c5.5,0,10.9,0.1,16.4,0c4.1-0.1,6,1.6,6,5.9
		c-0.1,37.4-0.1,74.8,0,112.2c0,4.2-1.8,6-6,5.9c-5.8-0.1-11.7-0.3-17.5,0.1c-5.5,0.3-8.2-1.5-7.3-7.3
		C1642.5,437.7,1642.2,436.8,1642.1,436z"/>
	<path d="M1711,576.4c9-9.1,18.6-13.7,29.7-15.3c26.6-3.8,46.2,11.3,47.1,38c0.9,27.8,0.2,55.7,0.3,83.6c0,3.4-1.3,5.1-4.7,5.1
		c-7,0-14,0-21,0c-4.8,0-5-3.3-5-6.8c0-20.3,0-40.5,0-60.8c0-2.7,0-5.5-0.1-8.2c-0.5-10.6-5.6-18.2-13.5-20.5
		c-9.1-2.7-19.6,0.9-25.6,8.7c-6.3,8.3-6.8,18.1-7,27.8c-0.4,17.5-0.3,35.1,0,52.6c0.1,5.8-2,7.6-7.4,7.3c-6-0.3-12.1-0.1-18.1-0.1
		c-3.9,0-5.6-1.7-5.6-5.6c0.1-37.6,0.1-75.2,0-112.8c0-4.1,2.1-5.5,5.8-5.4c5.8,0,11.7,0.2,17.5-0.1c5.6-0.3,8.7,1.3,7.7,7.5
		C1710.9,572.4,1711,573.6,1711,576.4z"/>
	<path d="M1750.7,449.6c-20.6-0.9-39.1-5.8-55-18.6c-3.6-2.9-4.1-5-0.1-8c4.8-3.6,9.6-7.4,14-11.5c3.3-3,5.4-3,8.6,0.3
		c10.9,11.2,24.7,13,39.4,11c2.4-0.3,4.9-1.3,7.1-2.5c4.4-2.4,8.3-5.7,7.5-11.4c-0.8-5.6-5.5-7.1-10.2-8.2
		c-11-2.5-22.1-4.4-33.1-7.1c-10.2-2.5-19.5-6.9-25.9-15.7c-10.8-14.9-6.7-36.3,9.1-48.1c24.1-18,68.1-13.7,88.3,8.5
		c2.5,2.7,2.8,4.7-0.2,7.2c-5,4.4-9.8,8.9-14.5,13.5c-2.8,2.7-4.4,2.4-6.7-0.9c-8.8-12.2-24.1-17.4-38.8-13.5
		c-5.3,1.4-10.1,3.7-10.5,10.1c-0.5,6.8,4.5,9.3,9.7,10.5c13.8,3.2,27.8,5.6,41.6,9c13.5,3.3,21.9,12.2,24.8,25.9
		c3.2,14.8-4.4,30.9-18.5,39.8C1775.9,447,1763.1,449,1750.7,449.6z"/>
	<path d="M1952.1,106.9c14.8-13.4,31-18.2,49.3-13.1c17.8,5,26.9,17.9,27.3,39.5c0.5,26.7,0.1,53.4,0.2,80.1c0,4.3-1.7,6-5.9,5.9
		c-6.2-0.2-12.5-0.2-18.7,0c-5,0.2-6.4-2-6.3-6.7c0.1-20.5,0.1-40.9,0.1-61.4c0-2.3,0-4.7-0.1-7c-0.4-11.7-6.5-20.2-15.7-21.8
		c-11.3-1.9-22.3,3.9-26.7,14.4c-2.7,6.4-3.7,13.1-3.7,20c0,18.5-0.2,37,0.1,55.5c0.1,5.5-1.9,7.3-7.1,7c-6-0.3-12.1-0.2-18.1,0
		c-4.1,0.1-6-1.3-6-5.7c0.1-37.4,0.1-74.8,0-112.2c0-4,1.4-5.6,5.5-5.5c6.2,0.2,12.5,0.3,18.7,0c5.3-0.3,7.7,1.5,7,6.9
		C1951.7,103.7,1952,104.9,1952.1,106.9z"/>
	<path d="M1760.1,156.2c-0.2,7,0.9,13.3,3.4,19.3c4.8,11.2,13.3,17.9,25.5,18.3c11.5,0.4,20.2-5.1,25.6-15.3
		c0.8-1.5,1.7-3.1,2.3-4.7c1.2-3.6,3.2-3.7,6.2-2c5.6,3.1,11.3,6.2,17.1,8.8c4.2,1.9,4.7,4.1,2.8,8.1
		c-10.2,21.1-27.5,32.3-50.3,33.6c-23.6,1.4-42.6-8.2-55.1-28.7c-19.6-32.3-9.2-76.4,22.4-94.1c27.1-15.2,64-9,81,21.9
		c2.4,4.3,2.4,6.8-2.6,8.8c-5.8,2.3-11.4,5.1-17,7.8c-3.2,1.6-4.9,1.4-6.8-2.2c-6.6-12.8-16.2-17.7-30.1-16
		c-10.5,1.3-19.6,10.2-22.8,22.4C1760.6,147,1759.7,151.8,1760.1,156.2z"/>
	<path d="M1820.2,627.9c0-11.7-0.2-23.4,0.1-35.1c0.1-4.7-1.3-6.5-6.2-6.5c-12.6,0.1-11.3,1.8-11.4-11.5c0-1.2,0.1-2.4,0-3.5
		c-0.9-6.1,2.1-8.1,7.7-7.5c1,0.1,2-0.1,2.9,0c5.2,0.6,7.4-1.2,7.1-6.8c-0.4-9.9,0.1-19.9-0.2-29.8c-0.2-5.2,1.9-6.9,6.8-6.7
		c6.2,0.3,12.5,0.1,18.7,0.1c3.9,0,5.6,1.7,5.5,5.7c-0.1,10.3,0.2,20.6-0.1,31c-0.2,5.2,1.8,7,6.8,6.6c4.7-0.3,9.3,0,14,0
		c3.7,0,5.2,1.6,5.1,5.3c-0.4,21.1,3,16.8-16.4,17.2c-9.4,0.2-9.4,0-9.4,9.6c0,16.9,0,33.9,0,50.8c0,12.5,2.9,15.2,15.1,14.9
		c10.7-0.2,10.7-0.2,10.7,10.8c0,1.4,0,2.7,0,4.1c0,10.7-0.2,10.9-11.1,11.4c-8.5,0.4-17.1,1-25.5-1c-13.6-3.2-19.7-10.8-20.2-24.8
		c0-0.4,0-0.8,0-1.2C1820.2,650.1,1820.2,639,1820.2,627.9z"/>
	<path d="M2330,158.9c0-11.7-0.1-23.4,0.1-35.1c0.1-4.3-0.9-6.3-5.8-6.3c-11.8,0.1-11.8-0.2-11.8-11.7c0-1.4,0.1-2.7,0-4.1
		c-0.6-4.7,1.7-6,6.1-6c11.5,0,11.5-0.2,11.5-11.4c0-8.8,0.1-17.5,0-26.3c-0.1-4,1.4-5.6,5.5-5.5c6.6,0.2,13.3,0.2,19.9,0
		c4.5-0.2,5.7,1.9,5.7,6c-0.1,10.3,0.1,20.7-0.1,31c-0.1,4.7,1.2,6.8,6.3,6.5c4.6-0.4,9.3,0.1,14-0.1c3.8-0.1,5.8,1.1,5.7,5.3
		c-0.4,20.3,2.7,16.1-15.9,16.6c-1.6,0-3.1,0.1-4.7,0c-4.2-0.4-5.4,1.6-5.3,5.5c0.1,19.3,0,38.6,0.1,57.9c0.1,9.1,3,11.9,12,12
		c2.1,0,4.4,0.3,6.4-0.1c6-1.4,8.1,0.8,7.5,6.8c-0.4,4.4-0.2,9-0.1,13.4c0.1,3.3-1.3,5-4.6,5.5c-11.2,1.6-22.5,2.5-33.6-0.5
		c-12.5-3.4-18.1-10.6-18.6-23.6c0-0.6,0-1.2,0-1.8C2330,181.5,2330,170.2,2330,158.9z"/>
	<path d="M2059.5,579.7c8.4-12.8,19.5-17.1,32.2-18.3c5-0.5,7.8,0.9,7.4,6.7c-0.4,6.4-0.2,12.9-0.1,19.3c0.1,4.2-1.6,6.1-5.9,6.1
		c-5.1-0.1-10.1,1.1-14.7,3.2c-11.5,5.1-16.9,14.3-18,26.5c-1.7,18.7-0.7,37.4-1,56c-0.1,8.6,0,8.6-8.8,8.7c-4.7,0-9.4-0.2-14,0
		c-5.3,0.3-7.2-1.8-7.1-7.2c0.2-28,0.1-56.1,0.1-84.1c0-8.6,0.2-17.1-0.1-25.7c-0.2-5,1.6-7.2,6.7-7c5.6,0.2,11.3,0.2,16.9,0
		c4.8-0.2,6.8,1.8,6.3,6.6C2059.3,572.9,2059.5,575.4,2059.5,579.7z"/>
	<path d="M2435.9,157.5c0,18.3-0.1,36.6,0.1,54.9c0.1,5.1-1.7,7.1-6.8,6.8c-5.8-0.3-11.7-0.3-17.5,0c-5,0.2-6.9-1.6-6.9-6.7
		c0.2-14.6,0.1-29.2,0.1-43.8c0-22,0.1-44-0.1-66c-0.1-5.4,1.8-7.3,7.1-7c5.6,0.4,11.3,0.4,16.9,0c5.3-0.3,7.2,1.4,7.1,6.9
		C2435.7,120.9,2435.9,139.2,2435.9,157.5z"/>
	<path d="M1892.2,157.5c0,18.3-0.1,36.6,0.1,54.9c0.1,5.1-1.6,7.1-6.7,6.8c-5.8-0.3-11.7-0.3-17.5,0c-5,0.2-6.9-1.6-6.9-6.7
		c0.2-14.6,0.1-29.2,0.1-43.8c0-22,0.1-44-0.1-66c-0.1-5.4,1.8-7.3,7.1-7c5.6,0.4,11.3,0.4,16.9,0c5.2-0.3,7.2,1.4,7.1,6.9
		C1892,120.9,1892.2,139.2,1892.2,157.5z"/>
	<path d="M1571.5,157c0,17.9,0,35.8,0,53.8c0,8.2-0.3,8.4-8.6,8.4c-5.6,0-11.3-0.1-16.9,0c-3.7,0.1-5.2-1.6-5.2-5.3
		c0.1-37.6,0.1-75.2,0-112.8c0-4.1,1.7-5.5,5.6-5.4c5.8,0.2,11.7,0.4,17.5-0.1c5.9-0.5,7.9,1.6,7.8,7.6
		C1571.3,121.2,1571.5,139.1,1571.5,157z"/>
	<path d="M2420.4,46.7c15.5,0,15.5,0,15.5,15.3c0,15.8,0,15.8-15.7,15.8c-15.3,0-15.3,0-15.3-15c0-0.2,0-0.4,0-0.6
		C2404.9,46.7,2404.9,46.7,2420.4,46.7z"/>
	<path d="M1876.9,77.8c-15.7,0-15.8,0-15.7-15.8c0.1-17.9-2.2-15,15-15.3c3.5-0.1,7,0.1,10.5,0c4.1-0.2,5.5,1.7,5.4,5.6
		c-0.2,6.6-0.2,13.3,0,19.9c0.1,4.4-1.8,5.9-6,5.7C1883.2,77.7,1880,77.8,1876.9,77.8z"/>
	<path d="M1540.7,61.8c0-15.1,0-15.1,15.1-15.1c15.7,0,15.8,0,15.7,15.7c-0.1,18.2,1.9,15.2-14.8,15.4
		C1540.7,78,1540.7,77.8,1540.7,61.8z"/>
</g>
</svg>
