<?xml version="1.0" encoding="utf-8"?>
<!-- Generator: Adobe Illustrator 20.1.0, SVG Export Plug-In . SVG Version: 6.00 Build 0)  -->
<svg version="1.1" id="Layer_1" xmlns="http://www.w3.org/2000/svg" xmlns:xlink="http://www.w3.org/1999/xlink" x="0px" y="0px"
	 viewBox="0 0 272 92" style="enable-background:new 0 0 272 92;" xml:space="preserve">
<path d="M116.8,48.2c0,12.8-10,22.2-22.2,22.2S72.3,61,72.3,48.2c0-12.9,10-22.2,22.2-22.2S116.8,35.3,116.8,48.2z M107,48.2
	c0-8-5.8-13.4-12.5-13.4S82,40.2,82,48.2c0,7.9,5.8,13.4,12.5,13.4S107,56.1,107,48.2z"/>
<path d="M164.8,48.2c0,12.8-10,22.2-22.2,22.2s-22.2-9.4-22.2-22.2c0-12.8,10-22.2,22.2-22.2S164.8,35.3,164.8,48.2z M155,48.2
	c0-8-5.8-13.4-12.5-13.4S130,40.2,130,48.2c0,7.9,5.8,13.4,12.5,13.4S155,56.1,155,48.2z"/>
<path d="M210.8,27.3v39.8c0,16.4-9.7,23.1-21.1,23.1c-10.8,0-17.2-7.2-19.7-13.1l8.5-3.5c1.5,3.6,5.2,7.9,11.2,7.9
	c7.3,0,11.8-4.5,11.8-13v-3.2h-0.3c-2.2,2.7-6.4,5-11.7,5c-11.1,0-21.2-9.7-21.2-22.1c0-12.5,10.2-22.3,21.2-22.3
	c5.3,0,9.5,2.4,11.7,5h0.3v-3.6L210.8,27.3L210.8,27.3z M202.2,48.3c0-7.8-5.2-13.5-11.8-13.5c-6.7,0-12.4,5.7-12.4,13.5
	c0,7.7,5.6,13.4,12.4,13.4C197,61.6,202.2,56,202.2,48.3z"/>
<path d="M226,4v65h-9.5V4H226z"/>
<path d="M263,55.5l7.6,5c-2.4,3.6-8.3,9.8-18.5,9.8c-12.6,0-22-9.7-22-22.2C230.1,35,239.6,26,251,26c11.5,0,17.1,9.2,19,14.1l1,2.5
	l-29.6,12.3c2.3,4.5,5.8,6.7,10.8,6.7C257.1,61.6,260.5,59.2,263,55.5L263,55.5z M239.8,47.5l19.8-8.2c-1.1-2.8-4.4-4.7-8.2-4.7
	C246.4,34.6,239.5,38.9,239.8,47.5z"/>
<path d="M36.3,42.4V33H68c0.3,1.6,0.5,3.6,0.5,5.7c0,7.1-1.9,15.8-8.2,22c-6,6.3-13.8,9.7-24,9.7c-19,0-34.9-15.5-34.9-34.4
	s16-34.4,34.9-34.4c10.5,0,18,4.1,23.6,9.5l-6.6,6.6c-4-3.8-9.5-6.7-17-6.7c-13.9,0-24.7,11.2-24.7,25s10.8,25,24.7,25
	c9,0,14.1-3.6,17.4-6.9c2.7-2.7,4.4-6.5,5.1-11.7L36.3,42.4z"/>
</svg>
