<?xml version="1.0" encoding="utf-8"?>
<!-- Generator: Adobe Illustrator 20.1.0, SVG Export Plug-In . SVG Version: 6.00 Build 0)  -->
<svg version="1.1"
	 id="svg2" inkscape:version="0.48.2 r9819" sodipodi:docname="HTC.svg" xmlns:cc="http://creativecommons.org/ns#" xmlns:dc="http://purl.org/dc/elements/1.1/" xmlns:inkscape="http://www.inkscape.org/namespaces/inkscape" xmlns:rdf="http://www.w3.org/1999/02/22-rdf-syntax-ns#" xmlns:sodipodi="http://sodipodi.sourceforge.net/DTD/sodipodi-0.dtd" xmlns:svg="http://www.w3.org/2000/svg"
	 xmlns="http://www.w3.org/2000/svg" xmlns:xlink="http://www.w3.org/1999/xlink" x="0px" y="0px" viewBox="0 0 246.2 81.7"
	 style="enable-background:new 0 0 246.2 81.7;" xml:space="preserve">
<sodipodi:namedview  bordercolor="#666666" borderopacity="1" fit-margin-bottom="0" fit-margin-left="0" fit-margin-right="0" fit-margin-top="0" gridtolerance="10" guidetolerance="10" id="namedview20" inkscape:current-layer="svg2" inkscape:cx="126.34785" inkscape:cy="-0.17923649" inkscape:pageopacity="0" inkscape:pageshadow="2" inkscape:window-height="837" inkscape:window-maximized="1" inkscape:window-width="1600" inkscape:window-x="-8" inkscape:window-y="-8" inkscape:zoom="1.3485714" objecttolerance="10" pagecolor="#ffffff" showgrid="false">
	</sodipodi:namedview>
<defs>
	
	
		<inkscape:perspective  id="perspective24" inkscape:persp3d-origin="150 : 58.333333 : 1" inkscape:vp_x="0 : 87.5 : 1" inkscape:vp_y="0 : 1000 : 0" inkscape:vp_z="300 : 87.5 : 1" sodipodi:type="inkscape:persp3d">
		</inkscape:perspective>
</defs>
<path id="path38" inkscape:connector-curvature="0" d="M225.7,69.1c-13,0.1-25.4,0.2-28.8-0.1c-7-0.6-11.6-5.2-12.2-11.9
	c-0.4-4.4-0.4-8,0-11.5c0.6-6.5,6.1-12.7,12.2-13c2.2-0.1,8-0.1,18.6-0.1l30.7,0.1V19.8c0,0-24.5,0-31.8-0.1c-9.9,0-14.8-0.1-18,0.1
	c-6.9,0.3-12.7,2.7-17.2,7.3c-4.3,4.3-6.8,11.2-7.2,18.2c-0.2,3.8-0.3,8.7,0,11.6c0.7,7.5,3.1,13.4,7.2,17.5
	c4.3,4.4,11,7.2,17.2,7.3c5.2,0.1,49.8,0,49.8,0V69C246.2,69,232.7,69,225.7,69.1"/>
<path id="path40" inkscape:connector-curvature="0" d="M87.1,20.5v12.7h30.3v48.2h12.8V33.2h30.3V20.5
	C160.5,20.5,87.1,20.5,87.1,20.5z"/>
<path id="path50" inkscape:connector-curvature="0" d="M73.8,44.6c-0.1-6.9-2.5-12.7-7.2-17.5c-4.9-5-12.4-7-17.2-7.3
	c-4.2-0.2-21-0.2-24.9,0c-5.5,0.2-9.6,1.9-11.6,3.4c0,0,0,0,0,0l0-23.2H0v81.7h12.8c0,0-0.3-33.4,0-37.1c0.5-6.5,5.4-11.6,11.7-12.1
	c5-0.4,20.1-0.3,24.8,0C55.8,33,60.6,38,61,44.9c0.1,2.5,0,36.8,0,36.8h12.8C73.8,81.7,73.8,47.5,73.8,44.6"/>
</svg>
