<?xml version="1.0" encoding="utf-8"?>
<!-- Generator: Adobe Illustrator 20.1.0, SVG Export Plug-In . SVG Version: 6.00 Build 0)  -->
<svg version="1.1" id="Layer_1" xmlns="http://www.w3.org/2000/svg" xmlns:xlink="http://www.w3.org/1999/xlink" x="0px" y="0px"
	 viewBox="0 0 75 50" style="enable-background:new 0 0 75 50;" xml:space="preserve">
<g>
	<path id="XMLID_3_" d="M10.4,23.8c0,0-2.5-11.5,2.7-6.5s11.8,12.6,13,12.3c1.2-0.3,6.6-6.6,11.8-12s6.9-1.3,6,2.6s-3,10.9-2.7,11.1
		s10.3-12.1,13-11.7c2.3,0.3,4,3.2,1.7,5.1S43,35.4,43,36s4.5,7,5.3,7.4c0.4,0.2,3.9-1.1,7.4-2.5c3.6-1.4,6.8-4.2,8.2-2.8
		c1.5,1.5,1.7,3.8,0.5,4.7C63.2,43.7,47.9,51,45,47.4c-2-2.5-5.4-7.8-5.7-7.6C38.9,40,37.6,49,34.7,49c-2.9,0-2.9-2.7-2.1-6
		c0.9-3.2,4.8-16.9,4.5-17.1c-0.2-0.2-8,9.7-11.4,9.4c-2.4-0.2-8.4-7.9-8.6-7.6c-0.2,0.2,2.4,10.7,2.4,10.7s0.8,3-1,3.6
		s-3.4-1.5-4.6-6C12.7,31.5,10.4,23.8,10.4,23.8z"/>
	<path id="XMLID_2_" d="M61.9,32.1c0.7-1.1-0.8-3.6-2.1-3.8c-1.4-0.2-10.9,6.2-11.3,7.1s0.3,2.2,1.8,2.4
		C51.8,38,61.1,33.4,61.9,32.1z"/>
	<ellipse id="XMLID_1_" transform="matrix(0.2038 -0.979 0.979 0.2038 30.7825 47.8362)" cx="44.8" cy="5" rx="4" ry="3.5"/>
</g>
</svg>
