<?xml version="1.0" encoding="utf-8"?>
<!-- Generator: Adobe Illustrator 20.1.0, SVG Export Plug-In . SVG Version: 6.00 Build 0)  -->
<svg version="1.1" id="Layer_1" xmlns="http://www.w3.org/2000/svg" xmlns:xlink="http://www.w3.org/1999/xlink" x="0px" y="0px"
	 viewBox="0 0 416.9 100" style="enable-background:new 0 0 416.9 100;" xml:space="preserve">
<g id="_x23_214e9eff">
	<path d="M35.9,4.8c6.2-1.3,12.5-1.6,18.7-1.5c4.6,0.2,9.2,0.4,13.6,1.8c4.2,1.5,8.3,3.7,11.3,7.1c3.3,3.7,4.7,8.7,5.5,13.5
		c0.4,2.5,0.6,5.1,0.6,7.7c-4.1,0-8.1,0-12.2,0c-0.1-5-1.2-10.3-4.7-14c-4.3-4.3-10.2-6.6-16.2-7.1c-3.7-0.3-7.4,0.2-11,0.9
		c-4.4,0.9-8.7,2.5-12.3,5.2c-3.3,2.6-6.1,6-7.3,10c-1,3.9-0.8,8.2,1.4,11.7c2.4,3.6,6.2,6,10.2,7.5c6.7,2.6,13.7,4,20.7,5.7
		c2.9,0.7,5.7,2,8.2,3.7c1.6,1.2,3.2,2.9,3.5,5c0.5,3.8-0.3,7.9-2.5,11.1c-2.2,3.3-5.4,5.7-8.7,7.6C49,84.1,42.1,85.6,35.4,85
		c-3.9-0.3-7.7-1.1-11.3-2.7c-3.3-1.4-6.1-4.1-7.3-7.4C15,70,14.7,64.7,14.5,59.5c4.1,0,8.1,0,12.2,0c-0.2,4,0.3,8.3,2.7,11.7
		c1.9,2.6,5.1,3.8,8.2,4c3.3,0.2,6.8-0.4,9.5-2.5c1.5-1.4,3-3.1,3.3-5.2c0.1-1.5-0.7-2.9-1.7-4c-1.2-1.4-3-2.1-4.8-2.8
		C38.8,59,33.3,58.3,28,56.9c-4.9-1.5-10-3.4-13.6-7.3c-3.3-3.6-4.9-8.5-5.4-13.3c-0.5-4.8,0.4-9.8,3-13.9c1-1.5,2.2-3,3.4-4.4
		C20.7,11.6,27.8,6.6,35.9,4.8z"/>
	<path d="M372.6,5.5c3-0.4,6.1-0.6,9.1-0.6c2.7,0,5.4-0.1,8.1,0.2c4,0.3,8,0.9,11.7,2.4c4,1.6,7.8,4.1,10.3,7.7
		c2.4,3.4,3.6,7.5,4.3,11.6c0.4,2.7,0.7,5.4,0.7,8.1c-4.1,0-8.2,0-12.2,0c0-4.9-1.2-10-4.5-13.8c-3.7-3.8-8.7-6.1-13.8-6.9
		c-5.2-0.9-10.5-0.2-15.5,1c-4.9,1.3-9.9,3.4-13.3,7.4c-3.5,3.7-5.5,9-4.7,14.1c0.4,3,2,5.7,4.2,7.7c2.9,2.6,6.5,4.3,10.2,5.5
		c6.1,2.1,12.4,3.4,18.6,5c2.6,0.6,5.1,1.8,7.3,3.3c1.7,1.2,3.5,2.7,3.9,4.9c0.4,2.3,0.2,4.6-0.4,6.8c-0.9,3.9-3.5,7.2-6.7,9.6
		c-4.8,3.8-10.6,6.2-16.7,6.9c-5.7,0.6-11.6-0.1-17-2c-3.7-1.3-7.1-4.1-8.5-7.8c-1.9-5-2.1-10.4-2.3-15.6c4.1,0,8.2,0,12.2,0
		c-0.1,3.1,0.1,6.4,1.3,9.3c0.9,2.2,2.5,4.2,4.6,5.2c3.9,1.8,8.6,1.7,12.6-0.1c1.9-0.8,3.3-2.3,4.4-4c0.7-1,1.1-2.3,0.8-3.6
		c-0.4-1.7-1.7-3-3-4c-2.1-1.3-4.5-2.1-6.9-2.7c-2.9-0.8-5.9-1.3-8.8-1.9c-3.3-0.7-6.5-1.7-9.7-3c-4.3-1.8-8.2-4.9-10.3-9.1
		c-3.4-6.8-3.9-15.3-0.3-22.2c2.1-3.6,5-6.8,8.1-9.7c4.3-3.8,9.3-6.8,14.8-8.4C367.8,6.2,370.2,5.9,372.6,5.5z"/>
	<path d="M99.1,6.5c21.9,0,43.7,0,65.6,0c-0.8,3.4-1.6,6.9-2.4,10.3c-17.6,0-35.1,0-52.7,0C104.3,39,98.9,61.1,93.5,83.2
		c17.4,0,34.8,0,52.2,0c-0.7,3.4-1.4,6.7-2.1,10.1c-12.9,0-25.9-0.1-38.8-0.1c-9.1-0.2-18.2,0.1-27.4-0.1
		C84.7,64.2,91.9,35.4,99.1,6.5z"/>
	<path d="M198.8,6.7c3.8,0,7.6,0,11.4,0c-17.4,29-35,57.8-52.5,86.8c-4,0-7.9,0-11.9,0c4.9-8.2,9.9-16.2,14.8-24.3
		C173.3,48.3,186,27.6,198.8,6.7z"/>
	<path d="M213.8,6.7c3.9,0,7.7,0,11.6,0c5,28.9,9.9,57.8,14.9,86.8c-3.6,0-7.2,0-10.8,0c-4.3-24.2-8.6-48.4-12.9-72.5
		c-0.6,1-1.4,2-1.9,3.1c2.5,14.4,4.9,28.7,7.4,43.1c-11.2,0-22.4,0-33.7,0c-0.5,0.9-1,1.8-1.5,2.7c11.8,0,23.5,0,35.3,0
		c1.4,7.9,2.9,15.8,4.4,23.6c-3.9,0-7.7,0-11.6,0c-0.5-4.6-1-9.2-1.6-13.8c-10.9,0-21.9,0-32.8,0c-2.7,4.6-5.5,9.1-8.3,13.7
		c-3.8,0-7.7,0-11.5,0c10.9-17.8,21.7-35.7,32.6-53.5C200.2,28.9,207,17.8,213.8,6.7 M206.4,37.8c-4,6.6-8.2,13-12.2,19.6
		c5.1,0,10.3,0,15.4,0C208.5,50.9,207.5,44.3,206.4,37.8z"/>
	<path d="M262.2,6.7c12.8,0,25.5,0,38.3,0c2.6,0,5.2-0.1,7.8,0.1c4.8,0.4,9.7,0.8,14.2,2.8c4.2,2.4,8.5,5.3,11.2,9.4
		c1.3,1.9,1.8,4.2,2.4,6.4c0.8,2.8,1.3,5.7,1,8.5c-0.1,2.5-0.8,4.9-1.5,7.3c-1,3-2.2,6.1-4.3,8.5c-1.2,1.5-2.7,2.7-4,4.1
		c-2.1,1.5-4.2,3-6.3,4.5c1.7,1.7,3.6,3.4,4.5,5.6c0.9,2.7,1.4,5.5,1.3,8.3c-0.3,3.7-0.7,7.3-1.6,10.9c-0.4,1.9-1.3,3.7-1.4,5.6
		c0.2,1.6,0.8,3.1,1.1,4.7c-3.8,0-7.6,0-11.4,0c-0.9-2.5-2-5-1.7-7.7c0.3-3,0.7-5.9,1.1-8.9c0.6-3.3,0.6-6.6,0.4-9.9
		c-0.1-2.1-0.8-4.1-2-5.7c-1.1-1.5-2.7-2.6-4.6-2.9c2.4-1.2,4.9-2.3,7.1-3.9c1.4-1,2.5-2.4,3.8-3.6c2.4-2.3,4.7-5,5.7-8.2
		c0.5-1.9,0.9-3.9,1.3-5.8c0.7-3.2,0.7-6.6-1-9.5c-3.6-6.3-10.9-10.3-18.1-10c-11.3,0-22.6,0-33.9,0c-6,25.4-12,50.8-18.1,76.1
		c-4.1,0-8.2,0-12.2,0C248.5,64.6,255.4,35.7,262.2,6.7z"/>
	<path d="M32.3,19c5.5-3,11.8-4.7,18-4.4c3.1,0.2,6.3,0.5,9.3,1.4c2.5,0.8,4.8,2.2,6.5,4.2c1.4,1.5,2.9,3.1,3.3,5.1
		c0.6,2.6,0.9,5.3,1.1,7.9c-4.2,0-8.3,0-12.5,0c0-2.2-0.5-4.4-1.7-6.2c-0.8-1.3-2.1-2.4-3.6-2.9c-3.2-1.2-6.8-1.6-10.1-0.7
		c-2,0.5-3.8,1.9-4.7,3.7c-1.1,2.3,0.2,5.2,2.2,6.6c2.9,2,6.3,3,9.6,3.9c6,1.8,12.1,2.9,17.9,5.3c1.7,0.6,3.2,1.6,4.7,2.7
		c3.5,2.5,6.8,5.9,7.8,10.2c1.2,5.6,1.3,11.7-0.8,17.1c-2.5,6-6.6,11.4-12.1,15c-2.7,1.8-5.8,2.9-8.8,4.1c-7.6,2.8-15.8,4.5-24,3.8
		c-6-0.4-12.1-1.2-17.6-3.7c-3.2-1.5-6-3.8-8.4-6.3c-3.8-3.7-6.9-8.2-8-13.4c-0.8-4.2-0.8-8.6-0.4-12.9c3.9,0,7.8,0,11.8,0
		c0,2,0.1,3.9,0.1,5.9c0.3,3.3,0.5,6.8,1.6,9.9c1.5,3.5,4,6.8,7.4,8.6c1.2,0.6,2.4,1.1,3.7,1.6c8.8,2.5,18.5,2.7,27.1-0.7
		c3.9-1.6,7.7-3.7,10.8-6.7c3.8-3.7,5.8-9,6.1-14.3c0-2.3-0.6-4.8-2-6.7c-1.7-2.2-4.2-3.6-6.8-4.5c-6.2-2.4-12.8-3.8-19.2-5.7
		c-4.1-1.1-8.2-2.8-11.7-5.4c-2.5-1.9-4.5-4.5-5-7.7C23.3,28,27,21.8,32.3,19z"/>
	<path d="M375.9,16.5c3.6-0.5,7.3-0.3,10.9,0.3c2.9,0.5,5.9,1.3,8.3,3c1.5,1,2.5,2.5,3.5,4c1.1,1.6,1.8,3.4,2,5.3
		c0.2,2,0.5,3.9,0.8,5.9c-4.1,0-8.2,0-12.2,0c-0.1-2.7-0.8-5.7-2.8-7.6c-1.2-1.2-2.9-1.7-4.5-2.2c-3.1-0.8-6.6-1-9.6,0.6
		c-1.4,0.9-2.8,2-3.4,3.6c-0.6,1.6,0,3.3,0.8,4.7c1.4,1.8,3.6,2.8,5.7,3.6c4.9,1.8,10.1,2.9,15.1,4.3c4.4,1.3,9,2.4,12.8,5.1
		c3.5,2.4,6.7,5.7,7.9,9.9c0.7,3,0.9,6.1,0.8,9.2c-0.1,3.3-0.7,6.6-2.1,9.6c-3,6.3-7.7,12.1-14.1,15.2c-7.7,3.6-16,6.3-24.5,6.7
		c-3.1,0.2-6.3-0.1-9.4-0.5c-4.8-0.6-9.7-1.4-14.1-3.4c-2.4-1.1-4.6-2.6-6.5-4.4c-4.2-3.8-8-8.4-9.5-14c-1.2-4.7-1.2-9.6-0.7-14.3
		c3.9,0,7.8,0,11.7,0c0.1,3.8,0.2,7.6,0.8,11.4c0.3,1.8,0.6,3.7,1.5,5.3c1,2,2.1,3.8,3.7,5.3c2.2,2.3,5.2,3.6,8.2,4.4
		c5.6,1.4,11.4,2,17.1,1.2c5.7-0.7,11.3-2.9,16.1-6.1c3.2-2.2,6-5.1,7.5-8.7c1.2-2.9,2.1-6,2-9.2c-0.1-2-0.7-3.9-1.8-5.6
		c-1.5-2-3.6-3.4-5.8-4.3c-4.9-2-10.1-3.3-15.2-4.7c-4.1-1.2-8.4-2.1-12.3-4.1c-2.9-1.4-5.7-3.2-7.6-5.8c-1.5-2.1-2.1-4.7-2-7.2
		c0.3-5.1,3.6-9.8,7.9-12.3C367.1,18.5,371.5,17.1,375.9,16.5z"/>
	<path d="M110.8,22.3c0.3-1.1,0.5-2.4,0.9-3.5c16.6,0,33.2,0,49.9,0c-0.8,3.1-1.4,6.2-2.3,9.2c-12.8-0.1-25.5,0-38.3,0
		c-1,3.8-2.1,7.5-3.1,11.3c12.2,0,24.4,0,36.6,0c-0.7,3.1-1.5,6.2-2.1,9.4c-12.2,0-24.4,0-36.6,0c-0.2,1-0.4,1.9-0.5,2.9
		c12.1,0,24.2,0,36.2,0c-0.8,3-1.7,5.9-2.5,8.8c-12.1,0.1-24.3,0-36.4,0c-0.9,3.9-1.8,7.9-2.6,11.8c12.8,0,25.7,0,38.5,0
		c-0.7,2.9-1.4,5.9-2.1,8.8c-16.6,0-33.2,0-49.7,0C101.4,61.5,106.1,41.9,110.8,22.3z"/>
	<path d="M273.8,19.7c11.4,0,22.9,0,34.3,0c2.5,0.2,5,0.7,7.3,1.8c2.5,1.4,4.8,3.5,6.2,6.1c1,1.8,1.3,3.8,1.3,5.9
		c0.1,3.1-0.2,6.4-1.5,9.3c-0.8,1.8-2,3.2-3.2,4.7c-1.6,1.9-3.2,3.8-5.3,5.1c-2.3,1.4-4.8,2.3-7.4,3.1c-9.2,0.1-18.3,0-27.5,0
		c-0.4,0.9-0.7,1.8-1.2,2.6c7.8,0,15.5,0,23.3,0c2.6,0.2,5.4,0.6,7.4,2.3c1.6,1.6,3.2,3.6,3.6,5.9c0.3,2,0,4-0.3,6
		c-0.5,3.4-0.9,6.8-0.9,10.2c0,3.6,0.4,7.2,1.2,10.8c-4.5,0-9,0-13.5,0c-0.7-3.1-1.3-6.3-1-9.5c0.2-3,0.5-6,1.2-8.9
		c0.6-1.9,0.3-4-0.9-5.6c-1-1-2.4-1.5-3.8-1.5c-6.1,0-12.1,0-18.2,0c-2.2,8.5-4.5,16.9-6.7,25.4c-4,0-8.1,0-12.1,0
		C262.1,68.9,268,44.3,273.8,19.7 M280.7,45.3c5.5,0,11.1,0,16.6,0c2.7-0.1,5.5-0.7,7.8-2.4c1.6-1.3,3.1-2.9,3.5-4.9
		c0.3-1.7,0-3.6-0.8-5.2c-1.3-1.6-3.4-2.3-5.3-3c-1-0.5-2.1-0.3-3.2-0.3c-5.2,0-10.3,0-15.5,0C282.8,34.8,281.7,40,280.7,45.3z"/>
</g>
</svg>
