<?xml version="1.0" encoding="utf-8"?>
<!-- Generator: Adobe Illustrator 20.1.0, SVG Export Plug-In . SVG Version: 6.00 Build 0)  -->
<svg version="1.1" id="Layer_1" xmlns="http://www.w3.org/2000/svg" xmlns:xlink="http://www.w3.org/1999/xlink" x="0px" y="0px"
	 viewBox="0 0 200 117.7" style="enable-background:new 0 0 200 117.7;" xml:space="preserve">
<g id="IpHI3N.tif">
	<g>
		<path d="M178.2,10.4c2.8,0.2,5.4,0.2,8.1,0.5c3,0.3,5.9,0.9,8.8,1.5c0.9,0.2,1.7,0.7,2.5,1.3c1,0.7,1.1,1.9,0.8,3
			c-0.3,1.1-1.3,1.4-2.4,1.4c-3-0.2-5.9-0.5-8.9-0.8c-3.4-0.3-6.9-0.5-10.3-0.8c-0.6,0-0.9,0.1-1.2,0.7c-2,4.7-4.3,9.4-6.1,14.2
			c-1.2,3.2-1.9,6.5-2.7,9.8c-2,8.6-3.3,17.4-3.8,26.2c-0.3,4.9-0.3,9.8-0.5,14.6c0,1-0.1,2.1-0.4,3.1c-0.1,0.5-0.8,1.2-1.2,1.2
			c-0.5,0-1.4-0.4-1.6-0.8c-0.6-1.5-1.1-3-1.3-4.5c-1.2-7.7-1.1-15.4-0.3-23.1c0.3-3.2,0.8-6.4,1.2-9.8c-0.4,0.6-0.7,1-1,1.4
			c-3.2,4.9-6.7,9.5-11.2,13.4c-2.6,2.3-5.4,4.2-8.9,5.1c-3,0.7-5.8,0.5-7.9-2c-1.3-1.4-1.8-3.2-1.9-5c-0.4-4.6,0.6-9,2.1-13.3
			c2.2-6.3,5.6-11.9,10.5-16.4c2.2-2,4.7-3.8,7.7-4.3c3.6-0.6,7,0.7,7.2,4.9c0.1,1.6-0.2,3.4-0.9,4.9c-3.3,7.8-9.3,12.5-17.5,14.4
			c-0.7,0.2-1.1,0.4-1.1,1.1c-0.3,2.2-0.6,4.3-0.9,6.5c-0.1,0.6,0.1,1.3,0.2,1.9c0.5,1.9,2.2,3,4,2.4c1.8-0.6,3.5-1.5,5-2.6
			c4.9-3.8,8.6-8.7,12.1-13.8c0.5-0.8,1-1.6,1.5-2.3c2-2.6,2.7-5.8,3.6-8.9c1.8-6,3.8-11.9,5.7-17.8c0.1-0.4,0.3-0.8,0.4-1.1
			c-3,0-5.9-0.1-8.7,0c-8.3,0.4-16.6,0.8-24.8,1.5c-7.1,0.6-14.2,1.4-21.2,2.5c-8.9,1.3-17.8,3-26.8,4.5c-0.4,0.1-0.9-0.2-1.4-0.4
			c0.3-0.4,0.5-1,1-1.2c3.3-1.2,6.5-2.3,9.9-3.3c10.2-2.9,20.6-5.1,31.2-6.4c8.4-1,16.8-1.8,25.2-2.5c5.2-0.4,10.5-0.5,15.7-0.7
			c0.5,0,1.1-0.2,1.6-0.1c0.9,0.1,1.3-0.3,1.7-1.1c1-1.8,1.9-3.7,3-5.4c0.6-0.9,1.4-1.8,2.2-2.5c0.7-0.6,1.6-0.8,2.4-0.4
			c0.9,0.4,0.9,1.2,0.9,2.1c0.1,2.1-0.7,4.1-1.3,6C178.4,9.6,178.3,9.9,178.2,10.4z M137.3,47.7c0.1,0.1,0.2,0.1,0.3,0.2
			c0.3-0.1,0.5-0.2,0.8-0.3c5.5-2.6,9.4-6.7,12.2-11.9c0.7-1.2,1.1-2.6,1.4-3.9c0.3-1.3-0.5-2.1-1.8-1.6c-1.1,0.5-2.3,1.1-3.2,1.9
			c-2.8,2.4-4.8,5.4-6.4,8.6C139.4,43,138.4,45.4,137.3,47.7z"/>
		<path d="M117.8,42.8c1-1.6,2-3.4,3.1-5.1c1.5-2.3,3.1-4.5,5.4-6.1c1.3-0.9,2.6-1.5,4.2-1.1c2.1,0.5,3.5,3.4,2.4,5.3
			c-0.2,0.3-0.8,0.6-1.1,0.5c-2.6-1-4.5,0.2-6.3,1.9c-3.1,2.9-5.3,6.4-7.3,10.1c-3.3,6-4.8,12.5-6.1,19.2c-0.3,1.7-0.4,3.4-0.4,5.1
			c-0.1,1.5-0.6,1.9-2,1.8c-3.6-0.3-4.5-2.4-4.3-5.6c0.1-1.6,0.5-3.2,0.8-4.9c0-0.2,0.1-0.3-0.1-0.6c-0.2,0.3-0.4,0.6-0.5,0.9
			c-2.6,4.7-5.4,9.3-9.6,12.8c-2.8,2.3-5.9,3.8-9.6,3.7c-3-0.1-5.2-1.5-6.2-4.2c-0.7-2.1-1-4.4-1.4-6.5c0,0.1-0.2,0.4-0.4,0.7
			c-2.8,5.4-5.8,10.5-10.2,14.7c-2.5,2.4-5.3,4.4-8.8,5.1c-4.5,0.8-8-0.6-9.2-5.8c-0.8-3.4-0.5-6.9,0.1-10.4
			c1.2-6.8,3.8-13.1,8.1-18.6c2.2-2.8,4.7-5.3,8-6.6c1.3-0.5,2.7-0.7,4.1-0.8c2.8-0.1,4.7,1.9,5,4.7c0.3,3.7-0.9,6.9-2.8,9.9
			c-3.4,5.3-8.1,9.1-14.3,10.7c-0.3,0.1-0.7,0.5-0.8,0.8c-0.2,2.3-0.5,4.6-0.4,6.9c0.1,3.5,2.7,5,5.8,3.3c1.8-1,3.5-2.5,5-4
			c5-5.5,8.8-11.8,12.1-18.4c1-2.1,1.4-4.5,2.3-6.8c2-5,4.7-9.6,8.8-13.2c2.2-2,4.7-3.6,7.8-3.9c1.6-0.1,3.2,0.2,4.6,1.1
			c1.5,1,2.3,2.3,2.2,4.1c-0.1,2.3-2.2,5.2-4.3,5.9c-0.5,0.1-1,0-1.5,0c0-0.5,0-1,0.1-1.4c0.3-1.2,0.8-2.5,1.2-3.7
			c0.1-0.4,0.1-0.8,0.2-1.1c0.1-1.7-0.7-2.3-2.2-1.5c-1.4,0.8-2.8,1.9-3.9,3.1c-3.9,4.6-6.2,10.1-7.5,16c-0.7,3-0.9,6.1-1.3,9.2
			c-0.1,0.8,0.1,1.8,0.3,2.6c0.6,2.4,2.4,3.4,4.7,2.6c2.4-0.8,4.2-2.5,5.9-4.3c4.4-4.9,7.8-10.5,10.8-16.4c1-1.9,1.5-4.1,2-6.2
			c0.8-3.1,1.5-6.3,2.2-9.4c0.2-0.9-0.2-2-0.3-3c0-0.4-0.3-1-0.1-1.2c0.3-0.3,0.9-0.4,1.3-0.3c2.6,0.7,4.5,2.3,4.6,5.3
			C117.9,40.7,117.8,41.7,117.8,42.8z M58.4,70.4c0.3-0.1,0.5-0.1,0.6-0.2c0.5-0.3,1.1-0.5,1.6-0.8c4.7-3.1,8-7.3,10.1-12.3
			c0.5-1.3,0.9-2.7,1-4c0.2-1.3-0.7-1.9-1.9-1.4c-0.9,0.4-1.9,0.9-2.5,1.7c-1.6,1.8-3.1,3.7-4.4,5.8C60.8,62.5,59.4,66.2,58.4,70.4z
			"/>
		<path d="M16.6,111.4c6-0.3,11.7-1.7,16.1-6.1c3.1-3,4.4-6.8,5.1-11c0.9-5.8-1.5-10.4-4.6-14.9c-2.5-3.6-5-7.1-7.5-10.7
			c-2.3-3.5-4.3-7.1-5-11.3c-1.5-8.6,1.1-15.9,7.5-21.8c4.9-4.5,10.9-6.6,17.4-7.2c3.3-0.3,6.5-0.1,9.7,0.9c0.8,0.3,1.6,0.6,2.4,1.1
			c2.1,1.2,2.6,2.9,1.6,5.1c-0.8,1.8-2.3,3-3.9,4c-0.3,0.2-1,0.1-1.3-0.1c-0.2-0.2-0.3-0.8-0.2-1.2c0.4-1.6,0.2-2.5-1.1-3.5
			c-1.4-1.2-3.1-1.7-4.9-1.7c-4.5-0.2-8.8,0.8-12.5,3.5c-4.9,3.5-6.8,8.5-6.8,14.3c0,3.3,1.1,6.4,2.8,9.1c2.3,3.7,4.8,7.3,7.2,10.9
			c2.5,3.7,5,7.4,6.4,11.7c2.9,8.7,0.1,21-9.7,27.8c-5.7,3.9-12,5.8-18.7,6.4c-2.9,0.3-5.8,0.3-8.6-0.5c-2.7-0.7-5-2-6-4.8
			c-0.9-2.5-0.7-4.9,0.9-7c1-1.2,2.2-2.2,3.4-3.3c0.2-0.2,0.6-0.4,0.9-0.5c0.6,0,1.3,0,1.6,0.3c0.3,0.2,0.2,1.1,0,1.5
			c-1.6,3.3-0.1,6.5,2.4,7.8c1.1,0.6,2.3,0.8,3.5,1.1C15.3,111.5,16,111.4,16.6,111.4z"/>
	</g>
</g>
</svg>
