<?xml version="1.0" encoding="utf-8"?>
<!-- Generator: Adobe Illustrator 20.1.0, SVG Export Plug-In . SVG Version: 6.00 Build 0)  -->
<svg version="1.1" id="Layer_1" xmlns="http://www.w3.org/2000/svg" xmlns:xlink="http://www.w3.org/1999/xlink" x="0px" y="0px"
	 viewBox="0 0 2500 1568" style="enable-background:new 0 0 2500 1568;" xml:space="preserve">
<style type="text/css">
	.st0{fill:#FFFFFF;}
</style>
<path d="M110.3,784.8c0-392.1,510.4-707.2,1139.7-707.2c629.3,0,1139.7,315.1,1139.7,707.2s-510.4,707.2-1139.7,707.2
	S110.3,1176.8,110.3,784.8L110.3,784.8z"/>
<path class="st0" d="M169.7,784.8c0-357.1,482.4-647.6,1080.3-647.6c594.3,0,1080.3,290.6,1080.3,647.6
	c0,357.1-486,647.7-1080.3,647.7C652.2,1432.4,169.7,1141.8,169.7,784.8L169.7,784.8z"/>
<path d="M194.2,784.8c0-343.1,472-623.1,1055.8-623.1c580.3,0,1052.3,280.1,1052.3,623.1s-472,623.1-1052.3,623.1
	C666.2,1407.9,194.2,1127.8,194.2,784.8L194.2,784.8z"/>
<path class="st0" d="M2068.1,564.2c0-14,10.5-28,31.5-28c17.5,0,31.5,14,31.5,42c0,24.5-21,56-48.9,77c-7,3.5-10.5,3.5-10.5,0
	l-3.5-3.5c0,0-3.5-3.5,0-7c3.5-3.5,24.5-24.5,24.5-35c0-14-7-14-14-21C2071.6,581.7,2068.1,578.2,2068.1,564.2L2068.1,564.2z
	 M1970.2,924.8c3.5-10.5,7-24.5,28-21c7,0,17.5,7,21,17.5c0,7-3.5,17.5,3.5,28c7,7,21,14,38.5,14c45.4,0,69.9-31.5,69.9-59.5
	c0-21-14-31.5-21-42l-41.9-52.5c-17.5-21-21-35-21-56c0-38.5,31.5-80.5,94.4-80.5c28,0,38.5,3.5,49,10.5c10.5,7,14,17.5,14,28
	c0,14-10.5,21-21,21s-21-3.5-24.5-10.5c-7-10.5-10.5-28-31.5-28c-24.5,0-41.9,21-41.9,42c0,21,14,35,17.5,42l45.4,52.5
	c7,10.5,24.5,31.5,24.5,63c0,49-52.4,94.5-108.4,94.5c-48.9,0-66.4-14-80.4-28C1973.7,952.8,1966.7,938.8,1970.2,924.8L1970.2,924.8
	z M690.6,462.7c3.5,7,0,17.5-3.5,35l-10.5,45.5c-3.5,10.5-3.5,17.5-14,17.5c-7-3.5-7-10.5-10.5-24.5c-7-63-31.5-101.5-94.4-101.5
	c-59.4,0-94.4,35-94.4,87.5c0,35,31.5,70,41.9,84l80.4,101.5c14,17.5,55.9,66.5,55.9,119c0,70-69.9,157.5-185.3,157.5
	c-90.9,0-150.3-42-178.3-66.5c-17.5-14-24.5-28-21-52.5l10.5-42c3.5-14,7-17.5,14-17.5c10.5,0,10.5,14,14,28
	c3.5,17.5,10.5,31.5,24.5,49c38.5,49,90.9,70,143.3,70c94.4,0,129.3-63,129.3-108.5c0-38.5-28-73.5-38.5-87.5l-94.4-115.5
	c-28-35-45.4-70-45.4-108.5c0-77,69.9-126,146.8-126c48.9,0,83.9,14,115.4,35C683.6,448.7,690.6,455.7,690.6,462.7L690.6,462.7z
	 M1365.4,910.8c-14,21-69.9,70-104.9,70c-28,0-21-31.5-14-59.5l24.5-105c-35,63-122.4,164.5-174.8,164.5c-21,0-35-14-21-59.5
	l42-171.6c3.5-14,7-24.5,3.5-28c-7-3.5-17.5,0-31.5,14c-10.5,10.5-28,24.5-28,24.5c0,10.5,0,42-14,77
	c-28,87.5-97.9,143.5-171.3,143.5c-45.4,0-76.9-28-87.4-56c-10.5,7-17.5,17.5-35,28c-28,21-48.9,24.5-62.9,24.5
	c-24.5,0-38.5-14-38.5-45.5c0-28,24.5-122.5,28-140l24.5-91h-28c0,0-14,0-10.5-7c0-10.5,10.5-14,24.5-17.5c24.5-7,45.4-31.5,59.4-56
	c3.5-10.5,7-14,14-14c7,3.5,10.5,7,7,21l-14,49h80.4c7,0,10.5,0,7,7v10.5c-3.5,3.5-3.5,7-10.5,7h-83.9l-35,143.5
	c-3.5,14-7,24.5-10.5,45.5c-3.5,17.5-7,38.5,0,49c10.5,10.5,38.5,0,76.9-35c-3.5-49,10.5-98,35-143.5c35-52.5,87.4-91,143.3-91
	c59.4,0,83.9,28,97.9,66.5c0,0,28-28,38.5-35c21-17.5,41.9-31.5,59.4-31.5s28,14,17.5,59.5l-48.9,182c-3.5,14-3.5,24.5,3.5,28
	c17.5,3.5,62.9-49,87.4-80.5c28-42,55.9-84,76.9-140c10.5-28,10.5-42,28-42h21c7,0,10.5,7,10.5,14l-56,217c-3.5,10.5-7,17.5-3.5,21
	c0,14,17.5,7,24.5,0c10.5-7,28-21,35-28c7-7,10.5-7,14-3.5l3.5,3.5C1368.9,900.3,1368.9,907.3,1365.4,910.8L1365.4,910.8z"/>
<path d="M879.4,956.3c62.9,0,97.9-59.5,115.4-112c24.5-77,31.5-154-35-154c-48.9,0-83.9,38.5-104.9,94.5
	C834,837.3,806,956.3,879.4,956.3L879.4,956.3z"/>
<path class="st0" d="M1382.8,700.7c-7,0-7,0-7-7l3.5-10.5c0-3.5,3.5-7,10.5-7h52.4l7-35c17.5-66.5,45.4-136.5,76.9-175
	c35-35,63-52.5,90.9-52.5c10.5,0,17.5,3.5,24.5,7c3.5,7,3.5,10.5,3.5,17.5l-7,24.5c-3.5,17.5-14,17.5-21,3.5
	c-7-14-17.5-21-31.5-17.5s-24.5,14-35,38.5c-14,24.5-31.5,73.5-48.9,140l-14,49h73.4l14-49c10.5-52.5,38.5-122.5,73.4-161
	s62.9-52.5,90.9-52.5c10.5,0,17.5,3.5,24.5,7c3.5,7,3.5,10.5,3.5,17.5l-7,28c-3.5,14-14,17.5-21,3.5c-7-14-17.5-24.5-35-21
	c-10.5,3.5-21,17.5-35,42c-10.5,17.5-31.5,70-45.4,133l-14,52.5h73.4c7,0,10.5,0,10.5,7l-3.5,10.5c0,3.5-3.5,7-10.5,7h-76.9
	l-73.4,294.1c-10.5,42-21,70-31.5,112c-10.5,28-17.5,56-28,87.5c-7,24.5-21,42-45.4,42c-10.5,0-14-3.5-14-10.5c0-3.5,0-3.5,3.5-7
	c14-7,21-31.5,28-66.5c3.5-21,17.5-73.5,21-84l90.9-367.6h-73.4l-73.4,294.1c-10.5,42-21,70-31.5,112c-10.5,28-17.5,56-28,87.5
	c-10.5,24.5-24.5,38.5-45.4,38.5c-14,0-17.5-3.5-17.5-7c0-7,7-7,10.5-14c14-7,14-21,24.5-59.5c10.5-38.5,31.5-133,45.4-178.5
	l69.9-273.1L1382.8,700.7L1382.8,700.7L1382.8,700.7z"/>
<path class="st0" d="M1886.3,683.2c3.5-3.5,7-7,10.5-7h24.5c10.5,0,21,7,21,21c0,3.5-3.5,10.5-3.5,14l-3.5,21
	c14-24.5,24.5-38.5,35-49c14-10.5,28-14,38.5-14c14,0,28,14,28,28c0,24.5-17.5,42-24.5,42c-3.5,0-7-3.5-10.5-10.5c0,0-7-21-28-10.5
	c-24.5,10.5-41.9,52.5-55.9,108.5l-35,136.5c-3.5,10.5-7,14-14,14h-24.5c-10.5,0-14,0-10.5-14l14-49c-28,24.5-94.4,66.5-150.3,66.5
	c-48.9,0-87.4-24.5-87.4-87.5c0-101.5,101.4-224,192.3-224c28,0,55.9,17.5,52.4,59.5c-3.5,28-31.5,63-87.4,84s-97.9,17.5-97.9,17.5
	s-28,73.5,7,101.5c45.4,38.5,132.8-10.5,178.3-49l38.5-154c3.5-14,7-28,0-35C1889.8,690.2,1886.3,686.7,1886.3,683.2z"/>
<path d="M1676.5,809.3c10.5-28,31.5-66.5,55.9-87.5c38.5-35,73.4-24.5,73.4,3.5C1805.9,784.8,1715,809.3,1676.5,809.3L1676.5,809.3z
	"/>
</svg>
